<svg width="57" height="59" viewBox="0 0 57 59" fill="none" xmlns="http://www.w3.org/2000/svg">
<path d="M19.602 13.7567L18.9556 15.2958C17.912 17.7805 17.6497 20.524 18.2036 23.1615C19.0487 27.1858 22.2524 30.2939 26.3005 31.0168L26.6569 31.0805C27.9407 31.3097 29.2549 31.3097 30.5387 31.0805L30.8951 31.0168C34.9432 30.2939 38.1469 27.1858 38.992 23.1615C39.5459 20.524 39.2836 17.7805 38.24 15.2958L37.5936 13.7567" stroke="#03989E" stroke-width="2" stroke-linecap="round"/>
<path d="M55.0097 39.9183C53.1778 47.9741 46.9161 54.3034 38.8864 56.2463C32.1381 57.8791 25.0581 57.8791 18.3099 56.2463C10.2802 54.3034 4.01845 47.9741 2.18661 39.9183C0.549884 32.7207 0.947941 25.2096 3.33625 18.2252L3.69107 17.1875C6.31898 9.5025 12.8838 3.8296 20.8687 2.34378L23.0553 1.93691C26.7191 1.25514 30.4773 1.25514 34.1412 1.93691L36.3277 2.34377C44.3125 3.82959 50.8774 9.50252 53.5053 17.1876L53.8601 18.2252C56.2484 25.2096 56.6464 32.7206 55.0097 39.9183Z" stroke="black" stroke-width="1.5"/>
</svg>
